<svg width="12" height="20" viewBox="0 0 12 20" fill="none" xmlns="http://www.w3.org/2000/svg">
<path fill-rule="evenodd" clip-rule="evenodd" d="M4.23769 2.03769C5.22225 1.05312 6.55761 0.5 7.95 0.5H10.65C11.0642 0.5 11.4 0.835786 11.4 1.25V4.85C11.4 5.26421 11.0642 5.6 10.65 5.6H7.95C7.91022 5.6 7.87206 5.6158 7.84393 5.64393C7.8158 5.67206 7.8 5.71022 7.8 5.75V7.7H10.65C10.881 7.7 11.099 7.8064 11.2412 7.98844C11.3833 8.17048 11.4336 8.40785 11.3776 8.6319L10.4776 12.2319C10.3941 12.5658 10.0942 12.8 9.75 12.8H7.8V19.25C7.8 19.6642 7.46421 20 7.05 20H3.45C3.03579 20 2.7 19.6642 2.7 19.25V12.8H0.75C0.335786 12.8 0 12.4642 0 12.05V8.45C0 8.03579 0.335786 7.7 0.75 7.7H2.7V5.75C2.7 4.35761 3.25312 3.02226 4.23769 2.03769ZM7.95 2C6.95544 2 6.00161 2.39509 5.29835 3.09835C4.59509 3.80161 4.2 4.75544 4.2 5.75V8.45C4.2 8.86421 3.86421 9.2 3.45 9.2H1.5V11.3H3.45C3.86421 11.3 4.2 11.6358 4.2 12.05V18.5H6.3V12.05C6.3 11.6358 6.63579 11.3 7.05 11.3H9.16442L9.68942 9.2H7.05C6.63579 9.2 6.3 8.86421 6.3 8.45V5.75C6.3 5.31239 6.47384 4.89271 6.78327 4.58327C7.09271 4.27384 7.51239 4.1 7.95 4.1H9.9V2H7.95Z" fill="#121212"/>
</svg>
