<svg width="22" height="19" viewBox="0 0 22 19" fill="none" xmlns="http://www.w3.org/2000/svg">
<path fill-rule="evenodd" clip-rule="evenodd" d="M13.7715 0.58095C14.2799 0.493868 14.8492 0.464792 15.385 0.555434C16.3418 0.717317 17.2257 1.16205 17.9244 1.8288C18.3811 1.83913 18.8299 1.74916 19.227 1.6209C19.5631 1.51235 19.847 1.38128 20.046 1.27764C20.1449 1.22611 20.2213 1.18215 20.271 1.15239C20.2958 1.13753 20.3138 1.12629 20.3245 1.1195L20.3341 1.11344C20.6309 0.915708 21.0261 0.954192 21.279 1.2057C21.5319 1.45726 21.5726 1.85218 21.3764 2.15009C21.1687 2.46538 20.8803 3.02745 20.5573 3.65721C20.5065 3.75623 20.4548 3.85692 20.4025 3.95859C20.2172 4.31855 20.0272 4.68237 19.8501 4.9945C19.7389 5.19049 19.62 5.38946 19.5001 5.5614V5.83518C19.5077 6.84081 19.3924 7.84119 19.1583 8.81441C19.011 9.42675 18.8167 10.0283 18.5765 10.6137C17.9541 12.1304 17.0357 13.5078 15.8749 14.6656C14.7142 15.8233 13.3344 16.7382 11.8162 17.3567C10.2992 17.9747 8.6745 18.2845 7.03665 18.2681C4.66234 18.2701 2.33798 17.5861 0.343255 16.2982C0.0494542 16.1085 -0.0742448 15.7409 0.0450916 15.4121C0.164428 15.0834 0.495121 14.8808 0.842194 14.9238C1.14255 14.9609 1.44496 14.9791 1.74762 14.9781C2.83507 14.975 3.90181 14.7348 4.87567 14.2821C4.56612 14.1412 4.27058 13.9675 3.99443 13.7627C3.18271 13.1608 2.5788 12.3208 2.26673 11.3597C2.18564 11.1099 2.24108 10.8359 2.41289 10.6374C2.41597 10.6338 2.41908 10.6303 2.42221 10.6268C2.23869 10.4631 2.06696 10.285 1.90886 10.0933C1.19754 9.23112 0.805866 8.14969 0.800085 7.03195L0.800065 7.02807L0.800075 6.97807C0.800075 6.71221 0.940827 6.46621 1.17003 6.33149C1.22813 6.29734 1.28972 6.27164 1.35307 6.2544C1.01473 5.57931 0.83879 4.83387 0.840075 4.07761C0.839675 3.22084 1.06347 2.37888 1.48923 1.63537C1.61214 1.42074 1.83297 1.2805 2.0795 1.26052C2.32603 1.24055 2.56656 1.3434 2.72242 1.53545C3.68498 2.72146 4.88626 3.69172 6.24825 4.38319C6.94839 4.73864 7.68294 5.01634 8.43874 5.21277C8.86247 5.3229 9.29288 5.40749 9.72765 5.46591C9.7085 4.74266 9.85133 4.01979 10.1511 3.35186C10.5907 2.37203 11.3432 1.56585 12.2904 1.05976C12.6916 0.845432 13.2241 0.674721 13.7715 0.58095ZM2.49335 8.12844C2.623 8.49333 2.81586 8.83565 3.06592 9.13875C3.55724 9.73429 4.23919 10.1419 4.99641 10.2925C5.33369 10.3596 5.58213 10.6475 5.59916 10.9909C5.61618 11.3344 5.39743 11.6455 5.06843 11.7456C4.79594 11.8285 4.51676 11.8863 4.23441 11.9184C4.42099 12.1589 4.64047 12.3743 4.88787 12.5578C5.44906 12.9739 6.126 13.2048 6.82451 13.2182C7.14143 13.2243 7.4203 13.429 7.52112 13.7295C7.62195 14.03 7.52296 14.3615 7.27386 14.5575C6.22469 15.383 5.01149 15.9587 3.72594 16.2526C4.79142 16.5938 5.90887 16.7695 7.03916 16.7681L7.04786 16.7681C8.48792 16.783 9.91652 16.5109 11.2502 15.9676C12.5839 15.4242 13.796 14.6206 14.8156 13.6036C15.8353 12.5865 16.642 11.3765 17.1888 10.0442C17.3998 9.53001 17.5705 9.00155 17.6999 8.46364C17.9057 7.60787 18.007 6.7282 18.0001 5.84394L18.0001 5.83807V5.30807C18.0001 5.12622 18.0661 4.95056 18.186 4.81379C18.2553 4.73475 18.3764 4.55219 18.5455 4.25429C18.7061 3.97116 18.8839 3.63126 19.0688 3.27208C19.08 3.25035 19.0912 3.22852 19.1025 3.20658C18.6229 3.31073 18.0793 3.36531 17.5095 3.30373C17.329 3.28423 17.1618 3.19994 17.0387 3.0665C16.5358 2.52116 15.8662 2.15816 15.1348 2.03442C14.8102 1.97951 14.4179 1.99208 14.0248 2.05942C13.5977 2.13258 13.226 2.26059 12.9973 2.38277C12.343 2.73234 11.8233 3.28918 11.5196 3.96597C11.2159 4.64275 11.1454 5.4012 11.3192 6.12236C11.3746 6.35227 11.3183 6.59485 11.1674 6.77688C11.0164 6.95891 10.7884 7.05906 10.5522 7.04712C9.70877 7.00446 8.87429 6.87581 8.06142 6.66454C7.20152 6.44105 6.36579 6.1251 5.56921 5.72069C4.39643 5.12527 3.32838 4.34818 2.40354 3.42049C2.36135 3.6361 2.33993 3.85613 2.34008 4.07758L2.34007 4.0795C2.33903 4.63022 2.47418 5.17265 2.73349 5.6585C2.9928 6.14435 3.36822 6.55854 3.82633 6.86419C4.10436 7.04969 4.22608 7.39677 4.12483 7.71529C4.02358 8.03381 3.72378 8.24689 3.38968 8.2378C3.08708 8.22956 2.78702 8.19276 2.49335 8.12844Z" fill="#121212"/>
</svg>
