<svg width="20" height="20" viewBox="0 0 20 20" fill="none" xmlns="http://www.w3.org/2000/svg">
<path d="M13.9997 5.00005C13.9997 4.44776 14.4474 4.00005 14.9997 4.00005C15.552 4.00005 15.9997 4.44776 15.9997 5.00005C15.9997 5.55233 15.552 6.00005 14.9997 6.00005C14.4474 6.00005 13.9997 5.55233 13.9997 5.00005Z" fill="#121212"/>
<path fill-rule="evenodd" clip-rule="evenodd" d="M9.99969 5.25005C7.37634 5.25005 5.24969 7.37669 5.24969 10C5.24969 12.6234 7.37634 14.75 9.99969 14.75C12.623 14.75 14.7497 12.6234 14.7497 10C14.7497 7.37669 12.623 5.25005 9.99969 5.25005ZM6.74969 10C6.74969 8.20512 8.20477 6.75005 9.99969 6.75005C11.7946 6.75005 13.2497 8.20512 13.2497 10C13.2497 11.795 11.7946 13.25 9.99969 13.25C8.20477 13.25 6.74969 11.795 6.74969 10Z" fill="#121212"/>
<path fill-rule="evenodd" clip-rule="evenodd" d="M15.2579 0.833061C11.7914 0.44562 8.20804 0.44562 4.74146 0.833061C2.72941 1.05794 1.10507 2.64295 0.868521 4.66548C0.453983 8.20978 0.453983 11.7903 0.868521 15.3346C1.10507 17.3571 2.72941 18.9422 4.74146 19.167C8.20804 19.5545 11.7914 19.5545 15.2579 19.167C17.27 18.9422 18.8943 17.3571 19.1309 15.3346C19.5454 11.7903 19.5454 8.20978 19.1309 4.66548C18.8943 2.64295 17.27 1.05794 15.2579 0.833061ZM4.90807 2.32378C8.26392 1.94871 11.7355 1.94871 15.0913 2.32378C16.4214 2.47244 17.4869 3.52205 17.641 4.83973C18.042 8.26825 18.042 11.7318 17.641 15.1604C17.4869 16.478 16.4214 17.5277 15.0913 17.6763C11.7355 18.0514 8.26392 18.0514 4.90807 17.6763C3.57797 17.5277 2.51248 16.478 2.35837 15.1604C1.95737 11.7318 1.95737 8.26825 2.35837 4.83973C2.51248 3.52205 3.57797 2.47244 4.90807 2.32378Z" fill="#121212"/>
</svg>
